<svg width="178" height="156" viewBox="0 0 178 156" fill="none" xmlns="http://www.w3.org/2000/svg">
<path d="M0 50.7121V72.9296C0 88.7001 12.7237 101.517 28.4938 101.631V101.631C56.1597 101.838 57.0566 101.907 60.7132 103.356C62.7829 104.253 64.5767 104.943 64.7147 104.943C64.7837 104.943 64.7837 102.252 64.7147 98.9403L64.6105 95.9522C64.5483 94.1689 63.4189 92.5983 61.7481 91.9717V91.9717C59.5403 91.0747 54.2969 90.7988 35.186 90.5228V90.5228C21.954 90.2926 11.3279 79.5371 11.258 66.3032L11.1767 50.9191L11.1164 33.8067C11.0736 21.6644 20.9049 11.7983 33.0473 11.7983V11.7983C53.124 11.7983 55.4698 11.9363 59.5403 13.1782C64.8527 14.8341 71.407 19.0429 74.9256 23.0447C78.0992 26.7015 81.8938 34.498 82.7907 39.3277C84.0326 46.0203 83.8946 46.1583 79.4791 42.0186C74.5116 37.3958 67.2674 33.6011 60.2992 31.8072C55.9527 30.7032 52.6411 30.4272 42.4992 30.4272H35.5313C32.4829 30.4272 30.0116 32.8985 30.0116 35.9469V35.9469V35.9469C30.0116 38.9954 32.4829 41.4666 35.5313 41.4666H41.3953C49.1225 41.4666 54.2279 41.8116 57.2636 42.5705C69.8202 45.4684 80.445 56.6457 82.7217 69.341C83.1357 71.6179 83.4806 73.8947 83.4806 74.3777C83.4806 74.8607 81.4798 73.6188 78.9961 71.4799C73.8217 67.1331 66.9915 63.4763 60.6442 61.7514C57.1946 60.8545 53.262 60.5095 43.1202 60.5095L35.4622 60.4692C32.4566 60.4534 30.0116 62.8855 30.0116 65.8912V65.8912V65.8912C30.0116 68.8567 32.4277 71.2543 35.3932 71.2315L38.9806 71.2039C51.3302 71.0659 57.8155 72.0318 64.1628 75.0677C70.4411 78.0345 76.7194 84.1751 79.4791 89.9018C83.2047 97.4914 83.4806 100.182 83.4806 129.23V150.481C83.4806 153.529 85.9517 156 89 156V156V156C92.0483 156 94.5194 153.529 94.5194 150.481V129.506C94.5194 114.533 94.7954 101.424 95.2093 99.3543C97.1411 89.0049 104.454 79.6214 114.044 74.9987C118.598 72.7908 120.529 72.3078 126.463 71.7559C130.326 71.4109 136.743 71.1349 140.744 71.2039L142.259 71.2327C145.439 71.2933 148.08 68.7937 148.195 65.6152V65.6152V65.6152C148.307 62.5159 145.774 59.9682 142.675 60.0621L134.742 60.3025C119.633 60.7165 116.045 61.4065 108.18 65.3392C105.627 66.6502 101.419 69.479 98.9349 71.5489L97.1939 73.0262C96.2019 73.8679 94.694 73.0456 94.8643 71.7559V71.7559C95.9682 63.3383 99.6938 56.2318 106.041 50.4361C113.906 43.2605 119.978 41.4666 136.812 41.4666H142.879C145.895 41.4666 148.308 38.9613 148.195 35.9469V35.9469V35.9469C148.08 32.8656 145.548 30.4272 142.465 30.4272H135.501C125.359 30.4272 122.047 30.7032 117.701 31.8072C110.664 33.6011 103.488 37.4648 98.4519 42.1566L97.391 43.1292C96.3468 44.0863 94.6771 43.2156 94.8643 41.8116V41.8116C96.3822 29.5303 104.937 18.3529 116.39 13.7992C120.253 12.2123 121.081 12.1433 143.711 11.9363V11.9363C156.518 11.8223 166.961 22.1729 166.961 34.9806V51.0571V66.4436C166.961 79.6993 156.276 90.4772 143.021 90.5918V90.5918C123.427 90.7988 118.529 91.0747 116.252 91.9027V91.9027C114.575 92.5737 113.452 94.1717 113.389 95.9771L113.285 98.9403C113.216 102.252 113.216 104.943 113.285 104.943C113.423 104.943 115.217 104.253 117.287 103.356C120.943 101.907 121.84 101.838 149.575 101.631V101.631C165.307 101.517 178 88.731 178 72.9986V50.7121V28.4262C178 12.7717 165.229 0.123997 149.575 0.275984V0.275984C117.632 0.551968 117.356 0.620964 107.352 5.79567C101.35 8.90049 93.1395 16.4211 90.7248 20.9058C89.9659 22.3547 89.207 23.5276 89 23.5276C88.793 23.5276 88.0341 22.3547 87.2752 20.9058C84.8605 16.4211 76.6504 8.90049 70.6481 5.79567C60.6442 0.620964 60.3682 0.551968 28.4938 0.275984V0.275984C12.802 0.123996 0 12.8025 0 28.4951V50.7121Z" fill="#82C464"/>
</svg>
