<svg version="1.1" id="Layer_1" xmlns="http://www.w3.org/2000/svg"
  xmlns:xlink="http://www.w3.org/1999/xlink" x="0px" y="0px"
  width="1200" height="1200" viewBox="50 50 652 460" xml:space="preserve">

<path fill="#82c464" opacity="1.000000" stroke="none"
	d="
M423.592896,230.189392
	C435.632019,228.740021 447.292847,228.966766 458.949127,228.997498
	C461.779388,229.004959 463.063812,230.147507 463.284698,233.148010
	C464.259460,246.388260 464.334900,246.348160 451.089417,246.396210
	C443.098083,246.425201 435.116119,246.230118 427.131165,247.207993
	C407.161652,249.653580 388.711456,267.809448 386.389984,287.662750
	C386.206055,289.235779 386.365723,290.848999 386.365723,293.192108
	C390.973389,289.270203 394.847778,285.673584 399.357025,282.869568
	C409.188141,276.756226 419.857513,273.239441 431.388641,272.796204
	C440.375793,272.450806 449.387909,272.807220 458.383942,272.617004
	C462.068573,272.539093 463.381927,273.900848 463.321899,277.566925
	C463.077393,292.487701 464.799774,289.872437 450.959259,290.214844
	C442.479706,290.424591 433.933197,289.348328 425.529175,291.013275
	C403.355072,295.406189 387.922424,312.340332 386.162720,334.802490
	C384.325562,358.253632 385.811218,381.773834 385.410980,405.259857
	C385.290619,412.320190 385.355530,412.369446 378.287170,412.311066
	C375.315582,412.286499 372.303467,412.719299 369.405457,411.883575
	C368.085480,410.185608 368.639801,408.284698 368.637451,406.509033
	C368.609253,385.176147 368.695618,363.842896 368.611877,342.510315
	C368.547333,326.059784 363.464081,311.737030 350.256989,301.079102
	C341.823486,294.273407 332.227051,290.445557 321.331421,290.279114
	C312.833405,290.149292 304.330902,290.129364 295.833191,290.252502
	C292.258423,290.304321 290.689270,289.037537 290.737366,285.319702
	C290.937866,269.818420 289.322021,272.846771 302.955505,272.727631
	C313.418457,272.636200 323.934021,271.918549 334.296265,274.409821
	C346.903046,277.440643 357.730469,283.597473 367.363251,293.217499
	C368.463013,286.696564 366.666687,281.342468 364.365082,276.330902
	C355.409637,256.831207 339.771912,247.206894 318.559723,246.443710
	C310.902954,246.168243 303.226532,246.293213 295.562531,246.429657
	C292.213776,246.489273 290.690735,245.362259 290.766998,241.839767
	C291.086060,227.099350 288.849701,229.153900 302.882568,228.998184
	C312.367828,228.892914 321.859222,228.806946 331.267151,230.438446
	C343.579529,232.573608 354.280182,237.970169 363.660706,246.147614
	C364.729645,247.079453 365.469452,248.592316 367.671661,248.624268
	C368.244141,241.153229 365.709412,234.458817 362.147186,228.360901
	C352.796814,212.354675 338.802765,203.536285 320.031372,203.292404
	C303.367767,203.075912 286.698792,203.301758 270.033234,203.184921
	C266.496063,203.160126 264.952698,204.181839 264.961639,208.004593
	C265.043854,243.170273 264.981384,278.336273 264.973480,313.502167
	C264.973389,313.990723 265.133423,314.479309 265.219818,314.974121
	C266.758362,316.505768 268.694153,315.907135 270.447723,315.912842
	C285.447296,315.961792 300.448639,315.817413 315.446198,315.998993
	C323.091675,316.091553 330.732849,316.650391 338.138855,318.923920
	C340.839813,319.753113 342.475098,321.081390 342.290924,324.199432
	C342.027893,328.652863 342.747406,333.156219 341.831512,337.490143
	C339.837311,338.409271 338.404114,337.250793 336.890411,336.716125
	C330.550476,334.476837 324.040863,333.322632 317.307098,333.329987
	C295.974182,333.353333 274.640320,333.233307 253.308975,333.416565
	C248.965790,333.453918 247.548325,332.163208 247.561325,327.742371
	C247.694870,282.243561 247.696411,236.744034 247.551590,191.245300
	C247.537338,186.764221 249.053787,185.583374 253.330231,185.616348
	C275.328522,185.785965 297.332245,185.447906 319.327484,185.757202
	C342.150726,186.078140 360.381836,195.705933 373.867828,214.191849
	C374.822296,215.500183 375.830078,216.769623 377.110870,218.447220
	C383.065308,209.654877 389.715454,202.098465 398.404846,196.530579
	C409.345428,189.520187 421.263428,185.772858 434.248352,185.721039
	C456.247620,185.633240 478.248840,185.823364 500.246002,185.591446
	C505.072052,185.540573 506.462830,187.002014 506.446442,191.807129
	C506.292236,236.972412 506.297821,282.138763 506.475525,327.303925
	C506.494904,332.228790 504.870453,333.576752 500.160950,333.427582
	C490.337555,333.116486 480.497589,333.326813 470.664429,333.326141
	C460.831268,333.325500 450.995911,333.458832 441.165558,333.293671
	C431.436523,333.130219 421.969086,334.319794 412.445404,338.613098
	C411.178772,332.610107 411.722076,327.339600 411.869385,322.115936
	C411.935638,319.765625 414.177429,319.453491 415.853027,318.937134
	C422.908813,316.762756 430.206390,316.026733 437.536072,315.972717
	C453.034882,315.858490 468.536285,315.867004 484.034180,316.042603
	C487.800446,316.085266 489.206573,315.199677 489.183624,311.060944
	C488.996246,277.229187 488.968567,243.395569 489.146179,209.563858
	C489.172943,204.460678 487.520660,203.007904 482.525452,203.097855
	C466.030731,203.394882 449.526703,203.122208 433.028687,203.298157
	C410.654327,203.536758 390.371216,220.832504 386.531830,242.801346
	C386.203857,244.678177 385.692932,246.694931 386.979340,249.128616
	C397.279877,239.227081 409.164429,232.656799 423.592896,230.189392
z"/>
</svg>